# xmcd
#
# Track frame offsets:
#	150
#	14364
#	29614
#	45767
#	62568
#	86910
#	96588
#	117905
#	129759
#	146850
#	158729
#	170187
#	193464
#	212479
#	230003
#	245817
#
# Disc length: 3556 seconds
#
# Revision: 1
# Processed by: cddbd v1.5.1PL2 Copyright (c) Steve Scherf et al.
# Submitted via: audiograbber 1.83.01
#
DISCID=eb0de210
DTITLE=Various Artist - If I Could Only Fly - A Tribute to Blaze Foley [CD 3]
DYEAR=2004
DGENRE=Country
TTITLE0=Gurf Morlix - 123, 12345
TTITLE1=The Blazettes - Girl Scout Cookies
TTITLE2=Ponty Bone and The Squeezetones - Ain't Got No Sweet Thing
TTITLE3=Deep in Cider - There Goes That
TTITLE4=Misfit Zion - (New) Slow Boat to China
TTITLE5=Alan Smithee - Crawl Back to You
TTITLE6=Jimmy Lee Jones - Someday
TTITLE7=The Ramblers - Getting Over You
TTITLE8=Jon Emery - Anything Less
TTITLE9=Ricky Caldwell - Where Are You Now My Love
TTITLE10=Cody Hubach - Long Gone
TTITLE11=Harvey Thomas Young - If I Could Only Fly
TTITLE12=Blaze Foley - Oval Room
TTITLE13=Blaze Foley - Lovin' You
TTITLE14=Blaze Foley - My Reasons Why
TTITLE15=Various Artist - Medley
EXTD=
EXTT0=
EXTT1=
EXTT2=
EXTT3=
EXTT4=
EXTT5=
EXTT6=
EXTT7=
EXTT8=
EXTT9=
EXTT10=
EXTT11=
EXTT12=
EXTT13=
EXTT14=
EXTT15=
PLAYORDER=
